<svg width="348" height="348" viewBox="0 0 348 348" fill="none" xmlns="http://www.w3.org/2000/svg">
<rect width="348" height="348" fill="white"/>
<rect x="48" y="48" width="251" height="251" rx="29" fill="url(#paint0_linear)"/>
<path d="M253 178.863C253 189.862 245.858 200.574 232.719 208.791C219.65 216.964 201.284 222.182 180.736 222.182C160.188 222.182 141.823 216.964 128.754 208.791C115.614 200.574 108.472 189.862 108.472 178.863C108.472 167.865 115.614 157.153 128.754 148.936C141.823 140.763 160.188 135.544 180.736 135.544C201.284 135.544 219.65 140.763 232.719 148.936C245.858 157.153 253 167.865 253 178.863Z" stroke="white" stroke-width="10"/>
<circle cx="143.855" cy="182.598" r="10.0373" fill="#794D98"/>
<circle cx="180.736" cy="182.598" r="10.0373" fill="#A25ED3"/>
<circle cx="217.617" cy="182.598" r="10.0373" fill="#D498FF"/>
<path d="M89 106.715L98.337 103.934L104.016 103.44C107.379 103.147 110.763 103.209 114.114 103.622C123.173 104.741 131.73 108.405 138.792 114.19L161.438 132.742L118.878 150.132L112.713 138.384C109.29 131.862 105.156 125.737 100.387 120.122L89 106.715Z" fill="white"/>
<path d="M111.636 242.588L124.007 240.954C131.939 239.582 139.315 235.977 145.27 230.561L155.4 221.347L124.007 209.442C124.007 219.91 120.695 230.111 114.545 238.582L111.636 242.588Z" fill="white"/>
<defs>
<linearGradient id="paint0_linear" x1="104" y1="48" x2="299" y2="313" gradientUnits="userSpaceOnUse">
<stop stop-color="#3D3C6B"/>
<stop offset="1" stop-color="#78437C"/>
</linearGradient>
</defs>
</svg>
